<?xml version="1.0" encoding="UTF-8" standalone="no"?>
<!-- Created with Inkscape (http://www.inkscape.org/) -->

<svg
   xmlns:dc="http://purl.org/dc/elements/1.1/"
   xmlns:cc="http://creativecommons.org/ns#"
   xmlns:rdf="http://www.w3.org/1999/02/22-rdf-syntax-ns#"
   xmlns:svg="http://www.w3.org/2000/svg"
   xmlns="http://www.w3.org/2000/svg"
   xmlns:sodipodi="http://sodipodi.sourceforge.net/DTD/sodipodi-0.dtd"
   xmlns:inkscape="http://www.inkscape.org/namespaces/inkscape"
   width="3000"
   height="815.10016"
   viewBox="0 0 3000 815.10018"
   id="svg2"
   version="1.1"
   inkscape:version="0.91 r13725"
   sodipodi:docname="cinepolis.svg">
  <title
     id="title14147">Cinépolis</title>
  <defs
     id="defs4" />
  <sodipodi:namedview
     id="base"
     pagecolor="#ffffff"
     bordercolor="#666666"
     borderopacity="1.0"
     inkscape:pageopacity="0.0"
     inkscape:pageshadow="2"
     inkscape:zoom="0.15861486"
     inkscape:cx="1020.5814"
     inkscape:cy="1042.1064"
     inkscape:document-units="px"
     inkscape:current-layer="layer1"
     showgrid="false"
     units="px"
     inkscape:showpageshadow="false"
     fit-margin-top="0"
     fit-margin-right="0"
     fit-margin-bottom="0"
     fit-margin-left="0"
     inkscape:window-width="1366"
     inkscape:window-height="715"
     inkscape:window-x="-8"
     inkscape:window-y="-8"
     inkscape:window-maximized="1" />
  <metadata
     id="metadata7">
    <rdf:RDF>
      <cc:Work
         rdf:about="">
        <dc:format>image/svg+xml</dc:format>
        <dc:type
           rdf:resource="http://purl.org/dc/dcmitype/StillImage" />
        <dc:title>Cinépolis</dc:title>
      </cc:Work>
    </rdf:RDF>
  </metadata>
  <g
     inkscape:label="Capa 1"
     inkscape:groupmode="layer"
     id="layer1"
     transform="translate(-1630.0848,1262.4045)">
    <g
       id="g14160">
      <path
         inkscape:connector-curvature="0"
         id="rect14152"
         d="m 1630.0848,-1262.4045 3000,0 0,815.10016 -3000,0 z"
         style="color:#000000;clip-rule:nonzero;display:inline;overflow:visible;visibility:visible;opacity:1;isolation:auto;mix-blend-mode:normal;color-interpolation:sRGB;color-interpolation-filters:linearRGB;solid-color:#000000;solid-opacity:1;fill:#1f60b5;fill-opacity:1;fill-rule:nonzero;stroke:none;stroke-width:0;stroke-linecap:round;stroke-linejoin:round;stroke-miterlimit:4;stroke-dasharray:none;stroke-dashoffset:0;stroke-opacity:1;color-rendering:auto;image-rendering:auto;shape-rendering:auto;text-rendering:auto;enable-background:accumulate" />
      <g
         style="fill:#000000"
         transform="matrix(1.2493742,0,0,-1.2493742,2088.0496,-502.8358)"
         id="g4604" />
      <g
         style="fill:#000000"
         transform="matrix(1.2493742,0,0,-1.2493742,1874.0009,-502.82118)"
         id="g4610" />
      <g
         style="fill:#000000"
         transform="matrix(1.2493742,0,0,-1.2493742,1934.0228,-523.91899)"
         id="g4614" />
      <g
         style="fill:#000000"
         transform="matrix(1.2493742,0,0,-1.2493742,1951.1699,-506.22035)"
         id="g4618" />
      <g
         style="fill:#000000"
         transform="matrix(1.2493742,0,0,-1.2493742,1981.5942,-533.11363)"
         id="g4622" />
      <g
         style="fill:#000000"
         transform="matrix(1.2493742,0,0,-1.2493742,2049.7143,-513.5568)"
         id="g4630" />
      <g
         style="fill:#000000"
         transform="matrix(1.2493742,0,0,-1.2493742,1912.5004,-541.48344)"
         id="g4634" />
      <g
         style="fill:#000000"
         transform="matrix(1.2493742,0,0,-1.2493742,1823.2354,-536.57015)"
         id="g4638" />
      <g
         transform="matrix(1.2493742,0,0,-1.2493742,1733.1829,-559.70431)"
         id="g4646" />
      <g
         transform="matrix(1.2493742,0,0,-1.2493742,1766.9721,-535.20733)"
         id="g4650" />
      <g
         transform="matrix(1.2493742,0,0,-1.2493742,1754.177,-495.48235)"
         id="g4654" />
      <g
         transform="matrix(1.2493742,0,0,-1.2493742,1712.3193,-495.45549)"
         id="g4658" />
      <g
         transform="translate(30.000013,-30.583496)"
         id="g14155">
        <g
           style="fill:#ffffff;fill-opacity:1"
           transform="matrix(8.5061315,0,0,-8.5061315,4452.1884,-697.13548)"
           id="g4642">
          <path
             d="m 0,0 0.758,0 c 0.236,-0.009 0.277,-0.279 0.295,-0.457 0.031,-0.305 0.066,-0.608 0.129,-0.899 l 0.781,0 C 1.83,-1.173 1.805,-0.778 1.791,-0.562 1.723,-0.103 1.723,0.245 1.17,0.303 1.576,0.411 1.852,0.69 1.852,1.116 c 0,0.695 -0.588,0.872 -1.141,0.881 l -1.412,0 0,-3.353 0.701,0 L 0,0 Z m 0,1.443 0.607,0 C 0.912,1.425 1.096,1.319 1.096,1.017 1.096,0.715 0.912,0.554 0.607,0.554 L 0,0.554 0,1.443 Z m -211.31691,23.563799 c -0.264,3.595 -2.947,5.625 -7.426,5.625 -6.278,0 -7.427,-7.443 -7.427,-13.42 0,-5.784 1.255,-12.6429996 7.427,-12.6429996 4.598,0 7.211,2.048 7.426,5.8609996 l 11.482,0 c 0.157,-10.0419996 -9.35,-13.5759996 -18.908,-13.5759996 -12.291,0 -18.896,7.444 -18.896,20.8089996 0,13.36 6.605,20.6 18.896,20.709 9.558,0 19.065,-3.324 18.908,-13.365 l -11.482,0 z m 71.44777,3.932601 5.312,0 6.709,6.433 -8.144,0 -3.877,-6.433 z m 109.826099,-22.3525023 9.359,0 c 0.008,-1.011 0.321,-1.85 0.948,-2.484 0.623,-0.649 1.466,-0.957 2.541,-0.957 0.959,0 1.705,0.224 2.205,0.7 0.508,0.464 0.756,1.034 0.756,1.717 0,0.499 -0.133,0.948 -0.424,1.302 -0.287,0.382 -0.791,0.659 -1.506,0.841 l -5.543,1.484 c -2.813,0.768 -4.781,1.8340003 -5.895,3.1810003 -1.121,1.365 -1.673,2.986 -1.673,4.914 0,1.757 0.439,3.311 1.314,4.646 0.869,1.339 2.195,2.4 3.91,3.19 1.752,0.78 3.979,1.166 6.75,1.166 4.116,0 7.112,-0.827 8.9690003,-2.467 1.851,-1.641 2.842,-3.672 2.965,-6.108 l -8.9040003,0 c -0.079,0.794 -0.387,1.445 -0.917,1.939 -0.515,0.497 -1.232,0.744 -2.109,0.744 -0.887,0 -1.603,-0.224 -2.113,-0.656 -0.391,-0.35 -0.58,-0.78 -0.58,-1.3 0,-0.447 0.158,-0.831 0.465,-1.134 0.308,-0.332 1.031,-0.638 2.181,-0.936 l 4.692,-1.166 c 3.0720003,-0.792 5.2170003,-1.903 6.4200003,-3.342 1.191,-1.431 1.783,-3.1450003 1.783,-5.1510003 0,-1.578 -0.334,-2.996 -0.992,-4.25 -0.69,-1.251 -1.6,-2.27200004 -2.748,-3.06300004 -1.164,-0.80399996 -2.5260003,-1.35899996 -4.0790003,-1.72199996 -1.574,-0.341 -3.232,-0.521 -4.976,-0.521 -2.119,0 -3.979,0.237 -5.625,0.691 -1.619,0.438 -2.979,1.15799996 -4.053,2.11499996 -1.08,0.981 -1.877,2.06800004 -2.383,3.31400004 -0.341,0.829 -0.595,1.938 -0.738,3.313 m -2.793158,-8.5927979 -9.80707,0 0,27.4599952 9.80707,0 0,-27.4599952 z m -9.826039,38.7749962 9.804988,0 0,-7.858998 -9.804988,0 0,7.858998 z m -4.320003,-38.7749962 -9.72799,0 0,37.9249952 9.72799,0 0,-37.9249952 z M -84.566417,22.240198 c -2.465,-2.679 -3.707,-6.244 -3.707,-10.694 0,-3.2549997 0.668,-5.9949997 1.998,-8.2199997 1.34,-2.242 3.084,-3.82799997 5.254,-4.776 2.178,-0.96 4.422,-1.448 6.717,-1.448 2.836,0 5.345,0.642 7.574,1.92400003 2.213,1.277 3.844,2.98799997 4.891,5.14899997 1.054,2.166 1.587,4.642 1.587,7.4499997 0,4.429 -1.234,7.974 -3.695,10.648 -2.463,2.662 -5.91,3.994 -10.367,3.994 -4.369,0 -7.791,-1.347 -10.252,-4.027 m 8.277,-17.0159997 c -0.666,0.45 -1.205,1.199 -1.578,2.238 -0.387,1.024 -0.57,2.401 -0.57,4.1029997 0,2.666 0.389,4.56 1.197,5.699 0.797,1.149 1.811,1.717 3.012,1.717 1.183,0 2.113,-0.483 2.76,-1.465 0.933,-1.293 1.384,-3.203 1.384,-5.718 0,-1.707 -0.187,-3.1489997 -0.554,-4.2499997 -0.358,-1.104 -0.865,-1.898 -1.498,-2.336 -0.645,-0.438 -1.319,-0.667 -2.035,-0.667 -0.733,0 -1.434,0.229 -2.118,0.679 M -108.91805,0.71479786 c 0.711,-0.972 1.316,-1.66 1.828,-2.10199996 0.496,-0.424 1.158,-0.779 1.959,-1.079 0.803,-0.291 1.748,-0.431 2.861,-0.431 3.157001,0 5.815001,1.314 7.965001,3.953 2.147,2.626 3.211,6.198 3.211,10.7190001 0,2.755 -0.418,5.258 -1.318,7.502 -0.858,2.25 -2.137,3.993 -3.861,5.194 -1.709,1.198 -3.608,1.797 -5.721001,1.797 -1.885,0 -3.547,-0.467 -4.987,-1.407 -1.437,-0.917 -2.412,-2.092 -2.954,-3.471 l 0,4.064 -8.788,0 0,-38.15 9.805,0 0,13.41099986 z m 6.846,15.93400014 c 0.793,-1.056 1.181,-2.637 1.181,-4.74 0,-1.347 -0.172,-2.5080001 -0.529,-3.5120001 -0.353,-0.995 -0.85,-1.724 -1.49,-2.175 -0.654,-0.447 -1.375,-0.686 -2.19,-0.686 -1.199,0 -2.168,0.507 -2.925,1.546 -0.748,1.027 -1.129,2.701 -1.129,5.0310001 0,2.009 0.406,3.522 1.215,4.559 0.802,1.033 1.796,1.552 2.962,1.552 1.163,0 2.12,-0.519 2.905,-1.575 m -20.57055,-1.767996 c -0.549,2.384 -1.502,4.45 -2.828,6.234 -1.328,1.761 -2.965,3.058 -4.873,3.892 -1.934,0.837 -3.992,1.261 -6.176,1.261 -4.209,0 -7.598,-1.408 -10.129,-4.189 -2.558,-2.802 -3.842,-6.383 -3.842,-10.777 0,-4.1370001 1.274,-7.5350001 3.807,-10.1860001 2.523,-2.653 6.012,-3.985 10.467,-3.985 2.785,0 5.189,0.529 7.213,1.592 2.015,1.06100002 3.588,2.419 4.701,4.084 0.687,0.997 1.164,2.162 1.43,3.482 l -9.36,0 c -0.68,-1.485 -1.865,-2.242 -3.56,-2.242 -1.545,0 -2.743,0.451 -3.596,1.381 -0.844,0.897 -1.297,2.182 -1.361,3.807 l 18.652,0 c 0.01,2.2410001 -0.16,4.1160001 -0.545,5.6460001 m -16.709,3.558 c 0.754,0.816 1.77,1.222 2.992,1.222 1.367,0 2.461,-0.426 3.264,-1.301 0.812,-0.854 1.23,-2.035 1.256,-3.525 l -8.846,0 c 0.125,1.575 0.57,2.774 1.334,3.604 m -31.33257,-20.4447022 -9.813,0 0,27.5360002 9.02,0 0,-4.29 c 1.178,1.803 2.43,3.091 3.752,3.881 1.3,0.78 2.852,1.166 4.625,1.166 3.02,0 5.361,-0.935 7.004,-2.814 1.686,-1.865 2.502,-4.646 2.502,-8.334 l 0,-17.1450002 -9.849,0 0,15.1690002 c 0,1.599 -0.311,2.763 -0.925,3.485 -0.611,0.719 -1.482,1.064 -2.605,1.064 -1.1,0 -2.014,-0.407 -2.682,-1.249 -0.691,-0.845 -1.029,-2.2 -1.029,-4.059 l 0,-14.4100002 z m -14.11507,0 -9.79802,0 0,27.4599952 9.79802,0 0,-27.4599952 z m -9.79802,38.7939982 9.79802,0 0,-7.841998 -9.79802,0 0,7.841998 z M 0.64056069,-1.9941984 c -1.273,0 -2.30299999,1.02600002 -2.30299999,2.30900002 0,1.27999998 1.02999999,2.32599998 2.30299999,2.32599998 1.25400001,0 2.28900001,-1.046 2.28900001,-2.32599998 0,-1.283 -1.035,-2.30900002 -2.28900001,-2.30900002 m 0,4.977 c -1.465,0 -2.65599999,-1.185 -2.65599999,-2.66799998 0,-1.47600002 1.19099999,-2.66800002 2.65599999,-2.66800002 1.45500001,0 2.63900001,1.192 2.63900001,2.66800002 0,1.48299998 -1.184,2.66799998 -2.63900001,2.66799998"
             style="fill:#ffffff;fill-opacity:1;fill-rule:nonzero;stroke:none"
             id="path4644"
             inkscape:connector-curvature="0" />
        </g>
        <path
           d="m 1811.8277,-900.42689 c 1.0294,0.39965 1.5482,1.44601 1.2336,2.34771 l -2.7989,8.58269 c -0.3472,1.06326 -1.378,1.51404 -2.4244,1.0973 l -5.512,-2.16062 c -1.0287,-0.24646 -1.5305,-1.36098 -1.199,-2.32218 l 2.8071,-8.6422 c 0.3677,-0.90162 1.378,-1.36098 2.3475,-0.97822 l 5.5461,2.07552 z m 18.0583,7.74057 c 0.9444,0.48476 1.5823,1.59063 1.1227,2.57736 l -2.7389,8.48915 c -0.3677,1.05474 -1.4032,1.36949 -2.3898,0.87609 l -5.3758,-2.4753 c -1.0042,-0.45956 -1.4631,-1.64168 -1.1826,-2.56884 l 2.8581,-8.59114 c 0.2792,-1.03779 1.361,-1.29297 2.3053,-0.9102 l 5.401,2.60288 z m 17.5737,8.95695 c 0.9273,0.34859 1.4971,1.68424 1.1485,2.56885 l -2.8751,8.53163 c -0.2792,1.0463 -1.2929,1.29297 -2.1862,0.90169 l -5.3418,-2.96011 c -0.9954,-0.53582 -1.5053,-1.60772 -1.233,-2.62842 l 2.8745,-8.47213 c 0.3064,-1.13978 1.344,-1.40347 2.3312,-0.87609 l 5.2819,2.93458 z m 17.1828,10.26694 c 0.9096,0.62977 1.4291,1.87984 1.0457,2.84955 l -2.807,8.55717 c -0.2996,0.95268 -1.3181,1.20786 -2.2624,0.61274 l -5.0783,-3.27486 c -0.9525,-0.67198 -1.4802,-1.91389 -1.1479,-2.78147 l 2.7812,-8.67624 c 0.3948,-0.91872 1.4719,-1.3185 2.3053,-0.65496 l 5.1634,3.36848 z m 16.7825,11.27062 c 0.9443,0.62092 1.412,1.91388 1.0805,2.85806 l -2.8071,8.5061 c -0.2519,1.16538 -1.3018,1.33545 -2.195,0.67198 l -5.0525,-3.64912 c -0.8421,-0.74006 -1.3187,-2.067 -1.0634,-2.91763 l 2.8751,-8.66773 c 0.3336,-0.86759 1.2677,-1.06326 2.2284,-0.47658 l 4.934,3.67465 z m 16.6803,11.96813 c 0.9273,0.62909 1.4291,1.94786 1.0805,2.96012 l -2.8411,8.51461 c -0.3064,1.01226 -1.3188,1.25042 -2.1099,0.51879 l -5.1546,-3.65763 c -0.8673,-0.68083 -1.2758,-1.88835 -0.9953,-2.86657 l 2.807,-8.55716 c 0.2996,-0.99517 1.344,-1.2334 2.2202,-0.49361 l 4.9932,3.58111 z m 16.5953,12.08721 c 0.8762,0.7485 1.4121,2.00743 1.0805,2.96012 l -2.8752,8.57418 c -0.2655,0.94418 -1.2929,1.31843 -2.2453,0.53582 l -4.934,-3.70019 c -0.9607,-0.52764 -1.3862,-1.91388 -1.1139,-2.83253 l 2.8411,-8.58269 c 0.3132,-0.9612 1.3011,-1.25042 2.2202,-0.52765 l 5.0266,3.5726 z m 16.596,12.07018 c 0.9524,0.78255 1.3609,1.99041 1.0457,2.99416 l -2.8411,8.4976 c -0.2996,0.9697 -1.2929,1.23339 -2.2113,0.59572 l -4.9163,-3.74266 c -1.0042,-0.57871 -1.489,-1.86289 -1.1234,-2.8836 l 2.8329,-8.53163 c 0.2996,-0.98673 1.3352,-1.13134 2.2284,-0.57871 l 4.9851,3.64912 z m 16.5952,12.18076 c 0.9014,0.66313 1.395,1.91388 1.1145,2.84955 l -2.8751,8.59121 c -0.3336,0.93566 -1.3269,1.23339 -2.195,0.55283 l -5.0436,-3.73415 c -0.9361,-0.67199 -1.3869,-1.8629 -1.0975,-2.9687 l 2.8833,-8.55717 c 0.3268,-0.89311 1.2677,-1.14829 2.212,-0.4936 l 5.0014,3.75969 z m 16.6123,12.0787 c 0.9525,0.59572 1.4461,1.91388 1.0887,2.84955 l -2.8153,8.54021 c -0.3268,1.06325 -1.3439,1.23339 -2.2283,0.59505 l -5.0103,-3.64912 c -0.851,-0.64679 -1.3358,-2.04148 -1.0634,-2.93459 l 2.8241,-8.59972 c 0.2791,-0.92715 1.3439,-1.26743 2.2882,-0.61275 l 4.9163,3.81075 z m -201.731,-6.52421 -2.8159,8.5827 c -0.3336,0.94418 -1.4461,1.48857 -2.4415,1.30999 l -5.6645,-1.68424 c -1.1145,-0.28936 -1.6762,-1.16532 -1.344,-2.24559 l 2.8241,-8.5827 c 0.286,-0.87616 1.4114,-1.48857 2.4408,-1.17389 l 5.6992,1.59921 c 1.0465,0.26348 1.6415,1.30992 1.3018,2.19452 m 17.046,4.15103 c 1.0124,0.53582 1.5652,1.38651 1.2588,2.40722 l -2.807,8.61673 c -0.3473,0.90163 -1.3862,1.42049 -2.4667,1.11432 l -5.6141,-1.9309 c -0.9954,-0.36561 -1.5993,-1.40354 -1.1738,-2.40722 l 2.7901,-8.52319 c 0.3472,-0.89312 1.4202,-1.39503 2.3904,-1.02921 l 5.6223,1.75225 z m 17.786,8.35299 c 0.9361,0.48475 1.506,1.70977 1.1486,2.64543 l -2.8241,8.55717 c -0.3472,0.98673 -1.4202,1.29297 -2.3564,0.87616 l -5.3077,-2.73047 c -0.9777,-0.49361 -1.5394,-1.65871 -1.2249,-2.5519 l 2.8241,-8.6422 c 0.3677,-0.95268 1.361,-1.28445 2.3305,-0.76552 l 5.4099,2.61133 z m 17.2421,9.51836 c 0.9443,0.63794 1.4719,1.82034 1.1315,2.73047 l -2.8663,8.49766 c -0.2587,1.05475 -1.3528,1.35247 -2.2461,0.77404 l -5.1716,-3.05366 c -0.9613,-0.5188 -1.395,-1.76077 -1.0975,-2.69651 l 2.8241,-8.54865 c 0.2724,-0.92716 1.3188,-1.31843 2.2291,-0.72298 l 5.1968,3.01963 z m 16.8764,11.00693 c 0.9613,0.64679 1.3692,1.86289 1.0887,2.90061 l -2.9092,8.55717 c -0.2451,0.92716 -1.31,1.15687 -2.1603,0.46773 l -5.1124,-3.49607 c -0.8674,-0.66381 -1.3861,-1.95637 -1.0546,-2.91756 l 2.9092,-8.62525 c 0.2792,-0.90163 1.3351,-1.18233 2.1691,-0.54467 l 5.0695,3.65763 z m 16.5531,11.75551 c 0.9354,0.66381 1.378,2.08402 1.0627,2.93459 l -2.8574,8.54021 c -0.2451,1.00368 -1.3106,1.36942 -2.2202,0.59504 l -5.0102,-3.7767 c -0.8763,-0.57871 -1.4121,-1.89687 -1.0124,-2.90913 l 2.7989,-8.48057 c 0.2723,-1.02077 1.2929,-1.2419 2.2283,-0.57871 l 5.0103,3.67465 z m 16.4849,12.07018 c 0.9266,0.77404 1.378,1.93942 1.0969,2.93466 l -2.8241,8.61667 c -0.3336,0.88467 -1.4032,1.10581 -2.2543,0.4936 l -5.0265,-3.77677 c -0.9273,-0.6039 -1.4461,-1.85432 -1.0635,-2.90055 l 2.8411,-8.57418 c 0.3132,-0.95269 1.361,-1.14836 2.2032,-0.56986 l 5.0272,3.77671 z m 16.5524,11.8831 c 0.8252,0.62092 1.3358,2.01594 1.0213,3.02813 l -2.7731,8.49766 c -0.3949,0.97822 -1.4038,1.14829 -2.3563,0.58688 l -5.0014,-3.77678 c -0.817,-0.65496 -1.3528,-1.87984 -1.0042,-2.87501 l 2.824,-8.67631 c 0.2383,-0.89312 1.3018,-1.07177 2.2291,-0.4936 l 5.0606,3.70869 z m 16.468,11.97664 c 0.9701,0.69744 1.4038,1.93935 1.0975,2.93459 l -2.8412,8.49766 c -0.3404,1.0207 -1.3099,1.22488 -2.1943,0.50177 l -5.0102,-3.57259 c -0.9185,-0.68084 -1.4121,-1.96488 -1.1145,-2.92608 l 2.807,-8.60823 c 0.3677,-1.09729 1.3358,-1.2419 2.2284,-0.58688 l 5.0273,3.75976 z m 16.519,11.93409 c 0.9354,0.72304 1.3609,2.03296 1.0975,3.07068 l -2.8411,8.42958 c -0.3473,1.02077 -1.4039,1.22489 -2.178,0.61275 l -5.1546,-3.62366 c -0.7911,-0.83354 -1.3269,-2.04147 -0.9947,-3.0877 l 2.8575,-8.52313 c 0.3131,-0.99524 1.3269,-1.13133 2.1439,-0.45071 l 5.0695,3.5726 z m 16.5271,11.99366 c 0.9192,0.6039 1.4039,1.91389 1.0383,2.9431 l -2.8499,8.57418 c -0.3813,0.90163 -1.3181,1.22489 -2.2373,0.49361 l -4.9843,-3.62359 c -0.9103,-0.73156 -1.344,-2.04999 -1.0294,-3.0282 l 2.807,-8.51462 c 0.3336,-0.98673 1.3099,-1.22488 2.2032,-0.5787 l 5.0524,3.73422 z m -229.7506,-103.73228 c -0.3336,0.94417 -1.5564,1.7948 -2.6709,1.89686 l -6.4386,0.67198 c -1.2507,0.17021 -1.9397,-0.52764 -1.5823,-1.44609 l 2.8241,-8.57411 c 0.3677,-1.0463 1.5564,-1.87991 2.6621,-1.99048 l 6.5244,-0.63794 c 1.1315,-0.22127 1.8117,0.56169 1.5223,1.53963 l -2.8411,8.54015 z m 15.5584,-10.35198 6.2602,0.0545 c 1.1145,0 1.7777,0.85907 1.4801,1.80325 l -2.8581,8.59972 c -0.3676,1.0207 -1.4971,1.69275 -2.6968,1.58211 l -6.124,-0.0613 c -1.1146,0 -1.7525,-0.72305 -1.4543,-1.69275 l 2.9004,-8.60816 c 0.245,-0.91021 1.446,-1.7268 2.4925,-1.67573 m 19.9633,1.81183 5.9205,0.85907 c 1.0635,0.1954 1.6585,1.12283 1.395,2.05849 l -2.9091,8.48915 c -0.2451,1.00368 -1.4461,1.67566 -2.4415,1.47155 l -5.9968,-0.88467 c -1.0457,-0.0851 -1.6244,-1.03772 -1.3691,-1.96488 l 2.9262,-8.64227 c 0.2996,-0.91013 1.378,-1.56509 2.4748,-1.38644 m -12.9378,-90.86253 2.8499,-8.52313 c 0.3132,-0.90169 1.4713,-1.69275 2.6621,-1.61615 l 6.0989,0.23829 c 1.0975,0.12731 1.7014,0.99524 1.395,1.94792 l -2.773,8.51462 c -0.4153,0.97821 -1.5653,1.67573 -2.5858,1.6502 l -6.15,-0.27234 c -1.1479,-0.0769 -1.7858,-0.87616 -1.4971,-1.93941 m 25.6292,-9.20362 6.0056,0.81659 c 1.0628,0.17021 1.6755,0.96971 1.2929,1.95637 l -2.79,8.64227 c -0.2996,0.9612 -1.4972,1.59914 -2.5266,1.48857 l -5.9798,-0.85063 c -1.0294,-0.22127 -1.7095,-1.01219 -1.378,-2.04999 l 2.9263,-8.51461 c 0.2451,-0.94418 1.3439,-1.60765 2.4496,-1.48857 m 19.4874,2.98565 5.8354,1.13127 c 1.0546,0.25531 1.6844,1.21644 1.378,2.08403 l -2.8159,8.61673 c -0.3744,0.94418 -1.4883,1.62467 -2.5769,1.3695 l -5.8014,-1.2334 c -1.0124,-0.22127 -1.6674,-1.1058 -1.344,-2.04998 l 2.8241,-8.55717 c 0.3677,-1.02077 1.4883,-1.63317 2.5007,-1.36098 m 19.0286,4.33812 5.6482,1.70971 c 1.0457,0.41667 1.5904,1.48006 1.3521,2.38175 l -2.9344,8.5827 c -0.2791,0.96119 -1.361,1.47154 -2.3904,1.19084 l -5.6141,-1.79481 c -1.0717,-0.22127 -1.5482,-1.30992 -1.2929,-2.34771 l 2.8493,-8.59965 c 0.4016,-0.87616 1.4038,-1.378 2.3822,-1.12283 m -65.9991,-15.45562 -41.7227,128.57017 c 79.5578,-14.07768 144.9272,39.9533 165.7164,55.01764 61.8991,44.60617 87.3922,63.33666 87.3922,63.33666 l 41.2291,-126.73288 -0.3336,-0.0851 c 0,0 -26.3775,-19.63218 -88.2685,-64.33189 -20.7292,-14.99626 -85.1379,-59.64498 -164.015,-55.77466 m 177.7399,294.23388 c 0.7653,-0.87617 1.9567,-1.08028 2.7301,-0.52765 l 7.2475,5.34187 c 0.851,0.64611 1.0294,1.8458 0.2791,2.66239 l -3.6574,4.5933 c -0.6196,0.8251 -1.8117,1.03779 -2.6709,0.4085 l -7.3319,-5.35031 c -0.8081,-0.57871 -0.8592,-1.76077 -0.2042,-2.4753 l 3.6063,-4.65287 z m 13.0229,-14.87726 c 0.7313,-0.75702 2.0752,-0.95269 2.8241,-0.2805 l 7.2305,5.32478 c 0.8755,0.51879 0.8755,1.67573 0.1429,2.44126 l -4.134,4.43173 c -0.6808,0.69751 -1.9226,0.8761 -2.7982,0.34859 l -7.2134,-5.35882 c -0.851,-0.67199 -0.8681,-1.76077 -0.1566,-2.43275 l 4.1,-4.47429 z m 13.8904,-13.96705 c 0.6808,-0.75702 2.0418,-0.84212 2.8159,-0.27233 l 7.3148,5.33336 c 0.817,0.58687 0.817,1.63318 0.068,2.37324 l -4.3893,4.19351 c -0.7734,0.76553 -2.0752,0.85908 -2.8663,0.24646 l -7.3067,-5.35889 c -0.8251,-0.51062 -0.8251,-1.6502 0,-2.3987 l 4.3975,-4.11699 z m 15.1669,-13.15046 c 0.7992,-0.70602 2.1943,-0.80808 2.9936,-0.17838 l 7.2726,5.26535 c 0.834,0.63793 0.7401,1.74374 -0.075,2.42423 l -4.823,3.78522 c -0.7482,0.689 -2.1943,0.85063 -2.9432,0.16136 l -7.3918,-5.30783 c -0.7312,-0.59573 -0.7312,-1.6502 0.1362,-2.27963 l 4.8318,-3.87032 z m 15.8381,-12.64862 c 0.8763,-0.53582 2.2454,-0.59573 3.0876,-0.0681 l 7.2897,5.32479 c 0.834,0.55283 0.7659,1.64168 -0.1362,2.36473 l -5.0266,3.61508 c -1.0124,0.60389 -2.3141,0.70602 -3.0882,0.0136 l -7.2979,-5.22272 c -0.9273,-0.62977 -0.74,-1.63318 0.1158,-2.33069 l 5.0524,-3.70019 z m 16.4591,-12.02764 c 0.9362,-0.70602 2.3564,-0.75708 3.2067,-0.16136 l 7.2645,5.31634 c 0.7319,0.69745 0.6808,1.7012 -0.2042,2.34765 l -5.0273,3.5811 c -0.8674,0.71453 -2.2794,0.71453 -3.0957,0.17021 l -7.2727,-5.40144 c -0.817,-0.52765 -0.6978,-1.54808 0.177,-2.2541 l 4.9504,-3.59806 z m 16.7144,-11.99366 c 0.9954,-0.66313 2.3734,-0.85063 3.1475,-0.17838 l 7.3067,5.30783 c 0.7401,0.66313 0.6979,1.69275 -0.2587,2.31367 l -5.0014,3.62359 c -0.9103,0.73155 -2.3053,0.74006 -3.1475,0.13617 l -7.2556,-5.32479 c -0.7823,-0.63794 -0.7653,-1.68424 0.1634,-2.35622 l 5.0436,-3.52153 z m 16.5619,-12.12976 c 0.9444,-0.69751 2.3646,-0.74851 3.1727,-0.10213 l 7.2815,5.29932 c 0.8415,0.66313 0.7823,1.60765 -0.1566,2.31367 l -5.0953,3.58955 c -0.8844,0.70602 -2.3475,0.70602 -3.0454,0.17838 l -7.2896,-5.35889 c -0.8334,-0.53582 -0.7483,-1.67567 0.1974,-2.27112 l 4.934,-3.64912 z m 16.5953,-12.05317 c 0.9184,-0.71453 2.3816,-0.71453 3.1475,-0.1702 l 7.3407,5.35038 c 0.7823,0.68015 0.6972,1.65013 -0.2247,2.22005 l -5.0272,3.81926 c -0.9355,0.50177 -2.2794,0.54467 -3.1727,0 l -7.1964,-5.35882 c -0.8422,-0.56986 -0.7312,-1.53963 0.1702,-2.26268 l 4.9592,-3.59805 z m 16.6041,-12.24032 c 0.9784,-0.56169 2.3394,-0.57871 3.1387,-0.007 l 7.3237,5.2823 c 0.7829,0.64611 0.7148,1.59062 -0.2656,2.30516 l -5.0102,3.6406 c -0.9103,0.67199 -2.2713,0.67199 -2.9854,0.10213 l -7.4089,-5.35031 c -0.8081,-0.55284 -0.6978,-1.65871 0.1975,-2.18609 l 5.0102,-3.78521 z m -68.2193,190.044 7.2645,5.35031 c 0.8252,0.62092 1.0287,1.83736 0.4561,2.73047 l -3.2999,4.98458 c -0.6196,0.79963 -1.7437,1.07183 -2.5096,0.47658 l -7.2726,-5.3674 c -0.7823,-0.58688 -1.0376,-1.79474 -0.4153,-2.58587 l 3.2829,-5.00159 c 0.5379,-0.89312 1.7273,-1.22489 2.4926,-0.58688 m 9.2375,-14.92832 c 0.6468,-0.84205 1.8287,-1.06325 2.6457,-0.37445 l 7.2726,5.20577 c 0.7653,0.66313 0.9103,1.83729 0.2996,2.6114 l -3.5042,4.86549 c -0.6673,0.79106 -1.8628,0.9612 -2.6798,0.41667 l -7.2386,-5.29932 c -0.7823,-0.6039 -0.9783,-1.72679 -0.3813,-2.66246 l 3.5894,-4.76344 z m 13.2782,-14.23073 c 0.8422,-0.80808 2.1433,-0.98673 2.9092,-0.37446 l 7.2556,5.38435 c 0.7823,0.56169 0.8422,1.62467 0.143,2.43275 l -4.2184,4.23607 c -0.7489,0.79105 -2.0248,0.91864 -2.8411,0.34041 l -7.3074,-5.38442 c -0.8503,-0.58688 -0.8503,-1.62467 -0.082,-2.41573 l 4.1422,-4.21904 z m 14.418,-13.5928 c 0.8422,-0.72304 2.1773,-0.88461 2.9603,-0.24646 l 7.3237,5.35882 c 0.7993,0.55284 0.7652,1.64169 0,2.43282 l -4.5507,3.93833 c -0.7911,0.67198 -2.178,0.85057 -2.9433,0.22127 l -7.3066,-5.3674 c -0.783,-0.61207 -0.783,-1.69268 0.068,-2.35615 l 4.4826,-3.98089 z m 15.719,-12.59756 c 0.7912,-0.74857 2.1521,-0.80808 3.0202,-0.22944 l 7.2638,5.43542 c 0.7911,0.50177 0.7741,1.53112 -0.1362,2.2882 l -4.9585,3.61508 c -0.8422,0.66381 -2.2031,0.76553 -3.0794,0.17838 l -7.3325,-5.33336 c -0.7312,-0.63794 -0.6468,-1.71822 0.2383,-2.33069 l 4.9843,-3.62359 z m 16.3066,-12.12976 c 0.9355,-0.73155 2.2965,-0.73155 3.0964,-0.17838 l 7.2897,5.32485 c 0.8163,0.66381 0.7142,1.6502 -0.177,2.32218 l -5.0525,3.69167 c -0.9014,0.5188 -2.3053,0.62092 -3.1134,0.0681 l -7.2897,-5.36734 c -0.8251,-0.55283 -0.7741,-1.69275 0.2043,-2.28814 l 5.0443,-3.57259 z m 16.5361,-12.05317 c 0.8932,-0.63794 2.2283,-0.63794 3.1045,-0.0613 l 7.2305,5.29081 c 0.7652,0.61275 0.7652,1.60764 -0.1021,2.27118 l -5.1553,3.73416 c -0.8585,0.58688 -2.2794,0.58688 -3.0706,0 l -7.2726,-5.30783 c -0.7652,-0.51879 -0.7652,-1.53112 0.2451,-2.22863 l 5.0191,-3.70012 z m 16.3488,-12.01919 c 0.9266,-0.689 2.4237,-0.689 3.1726,-0.034 l 7.2897,5.22279 c 0.8163,0.65496 0.7142,1.60765 -0.2111,2.29665 l -5.0871,3.61508 c -0.8422,0.68015 -2.2114,0.76559 -3.0195,0.10212 l -7.3918,-5.29931 c -0.7653,-0.59573 -0.64,-1.5907 0.2996,-2.28814 l 4.951,-3.61515 z m 16.425,-12.07019 c 0.9355,-0.63794 2.3305,-0.70602 3.1135,-0.0613 l 7.3066,5.30783 c 0.8504,0.64679 0.7401,1.61616 -0.1157,2.30516 l -5.0613,3.53855 c -0.9184,0.68015 -2.2794,0.79957 -3.0876,0.13617 l -7.2985,-5.3333 c -0.8163,-0.56985 -0.7142,-1.64168 0.177,-2.26267 l 4.9674,-3.6321 z m 16.5871,-11.90855 c 0.9273,-0.65496 2.3223,-0.79113 3.0964,-0.17021 l 7.2808,5.32485 c 0.783,0.64611 0.6979,1.65864 -0.177,2.26261 l -5.0014,3.60656 c -0.9273,0.70603 -2.3393,0.8251 -3.1474,0.17838 l -7.2727,-5.36733 c -0.851,-0.57871 -0.7571,-1.62467 0.177,-2.24566 l 5.0443,-3.58954 z m 16.4421,-12.10423 c 0.8851,-0.63794 2.2461,-0.70602 3.0964,-0.10213 l 7.2815,5.40996 c 0.7911,0.59504 0.689,1.58211 -0.2111,2.17757 l -5.0013,3.70862 c -0.9355,0.56169 -2.3053,0.63794 -3.1645,0.094 l -7.2809,-5.38443 c -0.7829,-0.53581 -0.7148,-1.61615 0.2111,-2.2626 l 5.0695,-3.64061 z m -169.493,186.6585 c 0.8422,0.5787 1.3181,1.9309 1.0294,3.13877 l -1.3698,6.32859 c -0.2042,1.10581 -1.0206,1.60765 -1.8287,1.0122 l -7.2815,-5.29081 c -0.8504,-0.55284 -1.2759,-2.04998 -1.0546,-3.25785 l 1.3188,-6.22647 c 0.2859,-1.22489 1.1308,-1.68424 1.922,-1.11432 l 7.2644,5.40989 z m -4.9843,-18.08404 1.9819,-5.87769 c 0.3676,-1.05481 1.3609,-1.39502 2.084,-0.81659 l 7.3319,5.3333 c 0.8762,0.63793 1.2166,1.93941 0.7829,3.00267 l -1.9397,5.86073 c -0.3812,1.05474 -1.3181,1.44608 -2.1092,0.90169 l -7.3155,-5.37591 c -0.8163,-0.61207 -1.2078,-1.91389 -0.8163,-3.0282 m 7.7655,-18.35624 2.6879,-5.52045 c 0.4834,-0.8251 1.6082,-1.13134 2.3652,-0.51879 l 7.2809,5.28229 c 0.817,0.68901 1.1233,1.93091 0.5855,2.78998 l -2.739,5.49499 c -0.4153,0.93567 -1.378,1.27595 -2.2624,0.61275 l -7.2897,-5.22279 c -0.7993,-0.73156 -1.0634,-1.87134 -0.6263,-2.91764 m -90.2327,-15.78732 -7.3407,-5.30783 c -0.8592,-0.48475 -1.0805,-1.83736 -0.7659,-2.96019 l 2.195,-5.6991 c 0.3472,-1.01219 1.429,-1.38644 2.1943,-0.73999 l 7.3237,5.30783 c 0.7149,0.59504 1.1656,1.96487 0.7149,3.01118 l -2.178,5.64804 c -0.4017,1.08027 -1.344,1.42906 -2.1433,0.74006 m -0.9783,-27.08354 2.5517,-5.5035 c 0.4834,-0.9612 1.5564,-1.25886 2.3135,-0.61207 l 7.3244,5.33336 c 0.7734,0.56101 1.0376,1.80325 0.6536,2.83253 l -2.6117,5.4184 c -0.4834,0.96971 -1.5312,1.2929 -2.2964,0.74851 l -7.3578,-5.40989 c -0.8081,-0.54466 -1.0464,-1.8458 -0.5787,-2.807 m 8.7017,-17.68425 2.9433,-5.20578 c 0.5582,-0.97821 1.6925,-1.25892 2.4925,-0.64679 l 7.3237,5.3589 c 0.8422,0.60389 1.0376,1.82027 0.5038,2.76444 l -2.9943,5.10372 c -0.4902,0.9612 -1.5734,1.30141 -2.3904,0.65496 l -7.2556,-5.26528 c -0.8504,-0.61275 -1.1649,-1.82034 -0.6196,-2.76451 m 10.1226,-16.85065 3.5213,-4.7379 c 0.6059,-0.84212 1.7096,-1.12283 2.4925,-0.50178 l 7.3149,5.23982 c 0.7911,0.73999 0.9872,1.9309 0.3063,2.74749 l -3.4531,4.78046 c -0.5787,0.89312 -1.7525,1.12276 -2.5096,0.56986 l -7.3577,-5.35032 c -0.766,-0.62977 -0.9443,-1.81183 -0.3132,-2.74749 m -34.9777,58.19896 109.4062,79.28561 c 11.1942,-80.03418 82.6372,-125.63552 103.3577,-140.79348 61.5764,-45.0995 87.1968,-63.60034 87.1968,-63.60034 l -107.824,-78.32447 -0.1634,0.34041 c 0,0 -26.82,19.11325 -88.4978,64.21275 -20.6279,14.97931 -82.9096,62.61368 -103.4776,138.87966 m 335.1243,-78.51586 c -0.5855,-0.93567 -0.4698,-2.12651 0.3608,-2.65388 l 7.2809,-5.31634 c 0.8592,-0.59573 1.9567,-0.37446 2.5524,0.53582 l 3.2748,4.88251 c 0.5583,0.98673 0.4221,2.05849 -0.4494,2.73047 l -7.2726,5.2823 c -0.8163,0.58688 -2.0071,0.31455 -2.4918,-0.56985 l -3.2497,-4.89103 z m -10.1396,-16.91873 c -0.5379,-0.89311 -0.3132,-2.16906 0.6127,-2.7304 l 7.2727,-5.34187 c 0.7829,-0.56169 1.9308,-0.27234 2.4074,0.68015 l 2.8663,5.22272 c 0.5174,0.94418 0.2655,2.16906 -0.5515,2.81558 l -7.3067,5.2823 c -0.8673,0.51879 -1.8797,0.29752 -2.4755,-0.70602 l -2.8241,-5.2228 z m -9.0244,-17.48007 c -0.4698,-0.93567 -0.1294,-2.32218 0.6604,-2.86657 l 7.2474,-5.24826 c 0.8933,-0.64611 1.956,-0.26348 2.3394,0.69751 l 2.5939,5.4779 c 0.4834,0.92723 0.2179,2.16055 -0.5719,2.79005 l -7.3237,5.25677 c -0.8762,0.57871 -1.9056,0.31454 -2.3563,-0.63794 l -2.594,-5.46946 z m -7.8773,-18.41574 c -0.2791,-1.09729 0,-2.33069 0.817,-2.84955 l 7.3237,-5.38442 c 0.7823,-0.62092 1.7607,-0.3234 2.1944,0.86765 l 2.1779,5.65655 c 0.4358,0.98673 0.095,2.34771 -0.7829,2.86657 l -7.3319,5.30783 c -0.689,0.52765 -1.7354,0.29752 -2.1691,-0.77404 l -2.2291,-5.69059 z m -7.0425,-19.11332 c -0.3132,-1.04623 0,-2.35615 0.8245,-2.93459 l 7.3496,-5.30783 c 0.8592,-0.56168 1.7606,-0.10212 2.1269,0.84212 l 1.8539,5.97981 c 0.4425,0.97816 0,2.40722 -0.7993,2.97714 l -7.2985,5.2823 c -0.8163,0.58688 -1.8035,0.25531 -2.0752,-0.83361 l -1.9819,-6.00534 z m -6.4652,-19.428 c -0.3131,-1.00375 0.068,-2.42423 0.9021,-3.03671 l 7.2897,-5.17166 c 0.8333,-0.62092 1.8287,-0.17838 2.1092,0.84205 l 1.9309,5.92881 c 0.3676,1.00369 -0.068,2.39871 -0.8763,2.96012 l -7.3318,5.27379 c -0.817,0.62092 -1.7865,0.17838 -2.1099,-0.85063 l -1.9139,-5.94577 z m -6.2772,-19.47906 c -0.3813,-1.08028 0.068,-2.44126 0.8163,-3.03664 l 7.3748,-5.27379 c 0.7741,-0.62977 1.7272,-0.15319 2.1099,0.94417 l 1.9308,5.85223 c 0.3336,0.98666 0,2.29665 -0.8333,2.96863 l -7.4088,5.33329 c -0.749,0.56985 -1.7103,0.17021 -2.0419,-0.91865 l -1.9478,-5.86924 z m -6.3454,-19.54708 c -0.3131,-1.04623 0,-2.42423 0.8674,-3.06217 l 7.3407,-5.21429 c 0.7912,-0.55283 1.7266,-0.20425 2.0589,0.85915 l 1.9648,5.90321 c 0.2656,1.02077 -0.088,2.43275 -0.9021,2.97714 l -7.3488,5.35889 c -0.8341,0.50178 -1.7014,0.11915 -2.1099,-0.95268 l -1.871,-5.86925 z m -6.363,-19.47899 c -0.3745,-1.06332 0,-2.54338 0.8932,-3.00267 l 7.2475,-5.27386 c 0.7823,-0.561 1.7524,-0.25531 2.0329,0.85063 l 1.9819,5.92031 c 0.3609,1.02921 0,2.34764 -0.8592,3.02813 l -7.2815,5.18024 c -0.8592,0.57871 -1.8028,0.23829 -2.1861,-0.81659 l -1.8287,-5.88619 z m -6.4645,-19.53864 c -0.3336,-1.20786 0,-2.38168 0.7993,-2.94309 l 7.3584,-5.38436 c 0.8585,-0.54466 1.8117,-0.17838 2.1433,0.92716 l 1.9138,5.88619 c 0.3132,1.08028 -0.088,2.39027 -0.8334,2.99416 l -7.3237,5.25684 c -0.834,0.65496 -1.8464,0.26348 -2.1521,-0.85914 l -1.9056,-5.87776 z m 159.7366,123.42397 7.2645,-5.21421 c 0.8163,-0.56169 2.033,-0.42552 2.705,0.42552 l 3.7084,4.61883 c 0.6972,0.86765 0.6128,2.10955 -0.3131,2.56891 l -7.2985,5.2823 c -0.7653,0.59504 -1.9731,0.45071 -2.688,-0.43369 l -3.7425,-4.60181 c -0.6468,-0.87616 -0.4834,-2.05849 0.3676,-2.64544 m -11.4577,-13.26103 c -0.5378,-0.94417 -0.3812,-2.13502 0.4834,-2.69643 l 7.2897,-5.30783 c 0.7489,-0.61275 2.0248,-0.37446 2.5095,0.55284 l 3.5553,4.75492 c 0.5719,0.91014 0.4017,2.12651 -0.4697,2.69644 l -7.2645,5.20577 c -0.8415,0.67198 -1.9731,0.46773 -2.6198,-0.4936 l -3.4873,-4.71238 z m -9.4588,-17.13986 c -0.5174,-1.05474 -0.2655,-2.26261 0.6264,-2.77302 l 7.3155,-5.34181 c 0.8082,-0.56168 1.8717,-0.26348 2.2795,0.66313 l 2.8751,5.34181 c 0.4902,0.9697 0.1566,2.23714 -0.6127,2.756 l -7.3496,5.26528 c -0.8844,0.62977 -1.9138,0.16136 -2.3986,-0.64611 l -2.739,-5.26528 z m -8.4722,-17.95645 c -0.4085,-0.98673 -0.1294,-2.27963 0.7319,-2.85806 l 7.2978,-5.17173 c 0.8252,-0.64679 1.8546,-0.29753 2.3393,0.58687 l 2.3564,5.63102 c 0.4698,0.97822 0.1906,2.29665 -0.6059,2.94317 l -7.4347,5.23124 c -0.7312,0.51062 -1.7858,0.26348 -2.2284,-0.8251 l -2.4585,-5.53748 z m -7.1705,-18.72198 c -0.3132,-0.97822 0.068,-2.39877 0.8592,-2.95167 l 7.3318,-5.30776 c 0.766,-0.64679 1.6763,-0.18723 2.1351,0.87609 l 1.9057,5.85222 c 0.4221,1.06326 0,2.42424 -0.8082,3.04522 l -7.3407,5.26528 c -0.723,0.58688 -1.7266,0.16136 -2.1099,-0.92715 l -1.973,-5.85223 z m -6.4815,-19.20686 c -0.3473,-1.18233 0,-2.5263 0.8932,-3.08771 l 7.3489,-5.24832 c 0.7489,-0.56986 1.6585,-0.26349 2.0588,0.91871 l 1.871,5.86918 c 0.3336,1.03779 -0.068,2.45827 -0.8422,3.07926 l -7.2897,5.2057 c -0.8504,0.39965 -1.8028,0.17021 -2.1262,-0.84205 l -1.9138,-5.89477 z m -6.278,-19.47055 c -0.3336,-1.13127 0.068,-2.35616 0.783,-2.96863 l 7.4088,-5.27379 c 0.7741,-0.58688 1.7266,-0.27233 2.0581,0.85063 l 1.9738,5.89471 c 0.2927,1.1058 -0.068,2.43274 -0.8933,3.00267 l -7.3155,5.25683 c -0.7912,0.59505 -1.8117,0.22944 -2.0582,-0.79112 l -1.9567,-5.9713 z m -6.4304,-19.36843 c -0.3677,-0.9612 0.068,-2.34771 0.9102,-3.04522 l 7.2386,-5.1462 c 0.8252,-0.68084 1.8376,-0.33157 2.1521,0.75701 l 1.8628,5.99683 c 0.3744,1.11432 0,2.40729 -0.7653,2.94317 l -7.3918,5.31634 c -0.8251,0.61207 -1.7184,0.27233 -2.084,-0.79113 l -1.9226,-6.0308 z m -6.3372,-19.40247 c -0.3813,-1.02928 0,-2.24565 0.7911,-2.88359 l 7.3577,-5.2228 c 0.7401,-0.689 1.7437,-0.2805 2.0929,0.81659 l 1.8709,5.86074 c 0.3813,1.07176 -0.068,2.45827 -0.7822,3.00267 l -7.4007,5.32485 c -0.7993,0.53581 -1.7266,0.11029 -1.9989,-0.94418 l -1.9308,-5.95428 z m -6.3372,-19.32594 c -0.3677,-1.07177 0.068,-2.4158 0.8762,-3.01118 l 7.3237,-5.32485 c 0.7319,-0.5188 1.7355,-0.18723 2.067,0.89311 l 1.9057,5.86924 c 0.3472,1.17389 0,2.56034 -0.8422,3.05374 l -7.2815,5.27378 c -0.8755,0.57871 -1.7947,0.31455 -2.0752,-0.86765 l -1.9737,-5.88619 z m -6.4046,-19.39403 c -0.3608,-1.08027 0.068,-2.41572 0.8163,-2.90906 l 7.4259,-5.25683 c 0.7148,-0.68893 1.7095,-0.24646 2.0159,0.85914 l 1.9479,5.89477 c 0.2655,0.98673 -0.088,2.33921 -0.8844,2.99417 l -7.3156,5.27378 c -0.8251,0.56169 -1.7266,0.22944 -2.1092,-0.83361 l -1.8968,-6.02236 z m 125.2866,218.75221 c 0.8844,-0.51879 2.3135,-0.56986 3.3259,0 l 5.563,3.2238 c 1.1146,0.63794 1.233,1.61616 0.4017,2.18609 l -7.3407,5.23981 c -0.7993,0.59573 -2.2883,0.59573 -3.3177,0 l -5.5712,-3.20685 c -1.0124,-0.59573 -1.2167,-1.5141 -0.3677,-2.17757 l 7.3067,-5.26528 z m -18.7222,-0.74851 -4.9163,-3.69167 c -0.9191,-0.7741 -0.9361,-1.80332 -0.2042,-2.37324 l 7.3155,-5.29932 c 0.9096,-0.52764 2.2794,-0.42552 3.2067,0.23829 l 4.8993,3.68316 c 0.8762,0.689 0.9784,1.74375 0.1634,2.29665 l -7.3577,5.32485 c -0.8416,0.53582 -2.1603,0.47658 -3.1046,-0.17838 m -15.0301,-13.1845 -4.3552,-4.13401 c -0.7149,-0.75701 -0.7149,-1.83736 0.1293,-2.39019 l 7.3326,-5.33336 c 0.7911,-0.53582 2.0751,-0.45956 2.8833,0.30637 l 4.2702,4.22749 c 0.8081,0.79963 0.7148,1.77778 -0.068,2.43281 l -7.3918,5.2823 c -0.7571,0.56169 -2.0582,0.41667 -2.8152,-0.39148 m -42.8203,81.17396 -7.2896,5.29932 c -0.8674,0.45071 -2.2542,0.45071 -3.0624,-0.29752 l -4.7971,-3.77678 c -0.8504,-0.689 -0.8844,-1.65864 -0.068,-2.32218 l 7.2815,-5.33329 c 0.8503,-0.57871 2.2195,-0.35744 3.0365,0.28935 l 4.84,3.81919 c 0.8504,0.68083 0.8504,1.61623 0.068,2.32218 m -26.1644,-7.57043 -4.4403,-4.02338 c -0.7061,-0.88467 -0.7061,-1.80331 0.1021,-2.45827 l 7.3659,-5.31634 c 0.7149,-0.62092 2.101,-0.49361 2.867,0.31454 l 4.4056,4.17649 c 0.8,0.689 0.8,1.73524 0,2.36467 l -7.3747,5.2313 c -0.8504,0.63794 -2.1263,0.53581 -2.8915,-0.28935 m -14.0694,-13.77996 -4.0407,-4.34663 c -0.7312,-0.81659 -0.674,-1.9819 0.1157,-2.50077 l 7.3407,-5.39293 c 0.8422,-0.48475 2.067,-0.38263 2.7731,0.42552 l 4.0407,4.44876 c 0.7653,0.72297 0.6604,1.85431 -0.1362,2.42423 l -7.3237,5.2823 c -0.7829,0.6039 -2.0758,0.45071 -2.773,-0.34041 m -12.9126,-14.78365 -3.4702,-4.69535 c -0.6536,-0.86765 -0.5039,-2.04998 0.2723,-2.6114 l 7.3489,-5.31634 c 0.851,-0.58687 2.0329,-0.34858 2.6968,0.52765 l 3.5893,4.74641 c 0.5106,0.9017 0.4017,2.01595 -0.3881,2.58587 l -7.3489,5.30783 c -0.851,0.59573 -2.0329,0.39965 -2.6967,-0.54467 m 44.5556,51.30051 109.0569,-79.61737 c -72.6168,-35.31752 -93.8567,-117.46118 -101.9545,-141.74623 -23.9108,-72.50623 -33.65,-102.5074 -33.65,-102.5074 l -107.7389,78.40106 0.2928,0.22944 c 0,0 9.7645,31.45571 33.7181,103.89392 7.9869,24.27647 34.0838,98.18623 100.279,141.34638 m 28.0802,-342.3965 c -1.0376,0.29753 -2.1092,-0.22944 -2.4156,-1.17382 l -2.7478,-8.59972 c -0.3472,-1.00375 0.2519,-2.05849 1.2759,-2.27111 l 5.7421,-1.62467 c 1.0036,-0.27233 2.1351,0.29752 2.4156,1.20786 l 2.7049,8.60816 c 0.2996,1.03779 -0.2383,2.04147 -1.2929,2.2797 l -5.6822,1.5736 z m -19.1899,4.41472 c -1.0294,0.11914 -2.1773,-0.47658 -2.4925,-1.44609 l -2.705,-8.65922 c -0.3131,-0.91014 0.3473,-1.90538 1.361,-2.10105 l 5.8354,-0.93566 c 1.0975,-0.30638 2.1521,0.34041 2.5688,1.2419 l 2.6798,8.59972 c 0.2995,0.98673 -0.3405,1.92239 -1.344,2.13502 l -5.9035,1.16538 z m -19.3853,3.04515 c -1.1145,0.15319 -2.2454,-0.48475 -2.5436,-1.44602 l -2.6709,-8.57418 c -0.3404,-1.07177 0.2383,-1.99048 1.344,-1.99048 l 5.9116,-0.85056 c 1.1486,-0.0681 2.2202,0.51062 2.5606,1.49708 l 2.739,8.65071 c 0.2792,0.98673 -0.3812,1.80332 -1.4461,2.03296 l -5.8946,0.68083 z m -20.0573,1.76077 c -1.0893,0.0545 -2.2631,-0.77404 -2.5184,-1.68417 l -2.7812,-8.61674 c -0.2655,-0.90163 0.4017,-1.73524 1.4972,-1.86283 l 6.0648,-0.25531 c 1.1145,-0.0408 2.2454,0.68894 2.5776,1.68418 l 2.705,8.57418 c 0.3404,0.91865 -0.3677,1.7863 -1.378,1.7863 l -6.167,0.37446 z m -20.2275,0.79106 c -1.1404,0 -2.2971,-0.74 -2.6035,-1.76077 l -2.7471,-8.52312 c -0.2451,-1.02071 0.3812,-1.76077 1.429,-1.76077 l 6.3113,0.0545 c 1.0805,0 2.2372,0.73999 2.6199,1.7097 l 2.6797,8.52312 c 0.2792,1.02077 -0.3336,1.76077 -1.4631,1.76077 l -6.2262,0 z m -20.5087,0 c -1.1397,0 -2.2712,-0.66313 -2.5517,-1.6502 l -2.7642,-8.59114 c -0.3336,-0.94418 0.3676,-1.70977 1.4965,-1.70977 l 6.2609,0 c 1.0634,0 2.1773,0.76559 2.4918,1.70977 l 2.8159,8.59114 c 0.2315,1.05481 -0.3404,1.74381 -1.4631,1.6502 l -6.2861,0 z m -20.5679,0 c -1.1567,0 -2.2372,-0.79106 -2.5429,-1.76077 l -2.79,-8.54866 c -0.3745,-1.01219 0.3676,-1.73523 1.4801,-1.73523 l 6.2684,0.0545 c 1.0723,-0.0545 2.2542,0.689 2.5354,1.7097 l 2.705,8.52312 c 0.354,1.02077 -0.2656,1.76077 -1.3699,1.76077 l -6.2861,0 z m -20.5339,0 c -1.1138,0 -2.2372,-0.79106 -2.5259,-1.76077 l -2.756,-8.54866 c -0.2655,-1.01219 0.3745,-1.73523 1.4631,-1.73523 l 6.2011,0 c 1.1567,0 2.2705,0.74006 2.6198,1.76077 l 2.6709,8.52312 c 0.32,1.02077 -0.32,1.76077 -1.4379,1.76077 l -6.2351,0 z m -20.4229,0 c -1.1907,0 -2.3305,-0.79106 -2.6709,-1.76077 l -2.6967,-8.54866 c -0.3405,-1.01219 0.3608,-1.73523 1.446,-1.73523 l 6.1929,0 c 1.1308,0.0545 2.3727,0.74006 2.6028,1.76077 l 2.756,8.52312 c 0.2723,1.02077 -0.3676,1.76077 -1.4971,1.76077 l -6.133,0 z m -20.5931,0 c -1.1485,0 -2.2971,-0.74 -2.6116,-1.76077 l -2.756,-8.52312 c -0.2996,-1.02071 0.4016,-1.70971 1.429,-1.70971 l 6.2861,0 c 1.0546,0 2.2713,0.74 2.5007,1.75226 l 2.7982,8.48057 c 0.3337,1.02077 -0.3404,1.76077 -1.4801,1.76077 l -6.1663,0 z m 166.9324,-113.36977 -2.722,-8.6932 c -0.2995,-0.9102 0.2792,-1.9309 1.327,-2.4072 l 5.495,-1.999 c 1.0124,-0.4337 2.0499,0.027 2.3985,1.0463 l 2.6879,8.5997 c 0.3677,0.9186 -0.1838,2.0074 -1.2248,2.4583 l -5.5542,2.0329 c -1.0546,0.3826 -2.0418,-0.1361 -2.4074,-1.0378 m -16.2637,6.60935 c -0.9525,0.37445 -2.016,-0.1954 -2.3564,-1.12283 l -2.7049,-8.54862 c -0.3404,-1.0548 0.2451,-2.0075 1.3269,-2.3818 l 5.5209,-1.8628 c 1.0716,-0.1872 2.1691,0.2553 2.4585,1.2164 l 2.7641,8.5741 c 0.2451,1.0378 -0.2451,1.99053 -1.2758,2.33074 l -5.7333,1.79481 z m -19.1729,3.78522 c -1.0968,0.0545 -2.1603,-0.52765 -2.4748,-1.48857 l -2.722,-8.5912 c -0.2723,-1.0122 0.2655,-1.8799 1.395,-2.033 l 5.8947,-0.9867 c 1.0628,-0.1532 2.101,0.5018 2.4408,1.4035 l 2.824,8.60826 c 0.2247,0.89311 -0.4016,1.93935 -1.395,2.09247 l -5.9627,0.99524 z m -19.6066,2.44976 c -1.0634,0.0408 -2.1773,-0.62092 -2.4918,-1.49708 l -2.7901,-8.69325 c -0.2927,-0.9953 0.3813,-1.7608 1.4461,-1.8969 l 6.0478,-0.6379 c 1.0798,-0.068 2.2454,0.6379 2.5089,1.5395 l 2.79,8.58275 c 0.2656,1.1058 -0.3472,1.9309 -1.446,1.98196 l -6.0649,0.62092 z m -20.0661,0.94418 c -1.0798,0 -2.2454,-0.73155 -2.5259,-1.61616 l -2.7901,-8.65075 c -0.2791,-1.0378 0.32,-1.7183 1.4461,-1.7183 l 6.2433,-0.1443 c 1.1145,0 2.263,0.8166 2.5435,1.7608 l 2.6961,8.57417 c 0.3473,0.89319 -0.2723,1.76077 -1.4202,1.76077 l -6.1928,0.034 z m -20.3378,0.23829 c -1.1397,0 -2.2794,-0.84212 -2.5436,-1.80325 l -2.7642,-8.65925 c -0.2791,-0.8422 0.3268,-1.6247 1.4801,-1.6247 l 6.2092,0 c 1.1057,0 2.3223,0.7825 2.5858,1.7522 l 2.7479,8.6253 c 0.3063,0.99524 -0.4017,1.7097 -1.489,1.7097 l -6.2262,0 z m -20.4406,0 c -1.0376,0 -2.2195,-0.84212 -2.5177,-1.80325 l -2.739,-8.65925 c -0.4017,-0.9102 0.3472,-1.6588 1.4631,-1.6588 l 6.2098,0.034 c 1.0969,0 2.2795,0.7825 2.56,1.7522 l 2.756,8.53175 c 0.2927,1.03772 -0.3813,1.80325 -1.4972,1.80325 l -6.235,0 z m -20.457,0 c -0.9953,0 -2.2113,-0.76553 -2.4925,-1.80325 l -2.662,-8.53175 c -0.3336,-0.9697 0.2791,-1.7522 1.412,-1.7522 l 6.2351,0 c 1.1308,0 2.2453,0.8591 2.6538,1.7522 l 2.688,8.6253 c 0.354,0.99524 -0.3473,1.7097 -1.472,1.7097 l -6.3624,0 z m -20.2193,0.0545 c -1.1227,0 -2.3645,-0.76553 -2.628,-1.70977 l -2.6709,-8.67633 c -0.3677,-0.8931 0.2791,-1.7097 1.4291,-1.7097 l 6.124,0.085 c 1.2078,0 2.3646,0.8081 2.756,1.7693 l 2.722,8.53169 c 0.1906,0.99524 -0.4425,1.70978 -1.5564,1.70978 l -6.1758,0 z m -20.4399,-0.0272 c -1.0887,-0.0272 -2.3223,-0.73999 -2.6199,-1.73523 l -2.756,-8.62527 c -0.2519,-0.8931 0.4222,-1.7522 1.5394,-1.7522 l 6.1588,0.041 c 1.1057,0 2.3053,0.8931 2.5858,1.7097 l 2.7642,8.67626 c 0.3336,0.99524 -0.3064,1.70977 -1.4543,1.68424 l -6.218,0 z m -20.3977,0.0272 c -1.0975,0 -2.2624,-0.71454 -2.5776,-1.70977 l -2.739,-8.53163 c -0.2792,-0.9612 0.3404,-1.8544 1.4631,-1.7693 l 6.2269,0 c 1.1308,0 2.2453,0.8081 2.6109,1.8033 l 2.688,8.61677 c 0.3608,0.87609 -0.2587,1.69268 -1.3951,1.69268 l -6.2772,-0.10212 z m 246.8306,-51.0623 c -0.2859,-0.9953 0.1975,-2.4243 1.0043,-3.2239 l 4.8992,-4.3211 c 0.8674,-0.757 1.8376,-0.6379 2.1011,0.3316 l 2.7641,8.6166 c 0.32,0.9272 -0.095,2.3222 -1.0716,3.1133 l -4.7801,4.3551 c -0.9021,0.8677 -1.8117,0.6298 -2.1269,-0.3145 l -2.7901,-8.5572 z m -6.5326,17.5226 -5.0524,3.581 c -0.9273,0.6802 -1.8886,0.3316 -2.2202,-0.5528 l -2.7642,-8.5911 c -0.2791,-1.0208 0.1839,-2.2202 1.1479,-2.9772 l 5.0184,-3.5301 c 0.9103,-0.6468 1.9057,-0.3656 2.2461,0.4936 l 2.773,8.6763 c 0.2655,0.9526 -0.177,2.2116 -1.1486,2.9006 m -17.1651,10.2328 -5.3418,2.8751 c -0.868,0.3744 -1.9737,0.054 -2.229,-0.9527 l -2.8071,-8.5742 c -0.2995,-1.0122 0.2792,-2.0925 1.1915,-2.6198 l 5.367,-2.722 c 0.9443,-0.6379 1.9819,-0.2294 2.3134,0.706 l 2.756,8.6678 c 0.2656,0.9016 -0.2314,2.0669 -1.25,2.6198 m 63.7531,65.85454 2.8499,8.63369 c 0.2724,0.89318 -0.2587,2.23715 -1.2078,2.77303 l -5.0701,3.42798 c -0.9436,0.52765 -1.9138,0.27234 -2.2536,-0.689 l -2.7989,-8.53163 c -0.2791,-1.10581 0.2043,-2.26268 1.1316,-2.90913 l 5.1546,-3.35139 c 1.0294,-0.61275 1.9907,-0.28935 2.1943,0.64679 m -15.2343,22.54975 -5.2397,2.9431 c -0.9954,0.43369 -2.0418,0.0613 -2.2372,-0.91014 l -2.79,-8.55716 c -0.3677,-0.91865 0.211,-2.13502 1.1567,-2.58587 l 5.2996,-2.9431 c 0.9695,-0.51879 2.0159,-0.14433 2.2712,0.8251 l 2.7472,8.55717 c 0.2996,0.98666 -0.2451,2.10949 -1.2078,2.6709 m -17.4803,9.10156 -5.4692,2.52629 c -0.9783,0.41667 -1.9056,0 -2.2542,-0.99517 l -2.79,-8.59972 c -0.2928,-0.94418 0.2314,-2.10955 1.2077,-2.50934 l 5.4528,-2.45821 c 1.1139,-0.44254 2.0071,-0.0933 2.2543,0.91865 l 2.824,8.60816 c 0.32,0.94417 -0.2314,2.01601 -1.2254,2.50934 m -17.9903,7.68951 -5.6312,1.88836 c -1.0376,0.31454 -2.05,-0.18723 -2.3475,-1.15681 l -2.739,-8.65071 c -0.3744,-0.97822 0.2451,-1.99899 1.2419,-2.39877 l 5.6481,-1.76928 c 1.0036,-0.39964 2.05,0.16136 2.3646,1.08028 l 2.7049,8.62525 c 0.3472,1.04623 -0.2315,1.9819 -1.2418,2.38168 m 62.4778,-26.40298 -41.8248,-128.45962 c -56.0726,58.0798 -140.7422,52.806 -166.3373,52.9166 -76.3682,0.1954 -107.9942,0.041 -107.9942,0.041 l 41.1529,126.69039 0.2587,-0.0272 c 0,0 32.9781,0.4085 109.2952,0.17021 25.5863,-0.14434 103.9704,-1.76928 165.4529,-51.33449 m -316.7506,-132.98821 c -0.068,1.0887 -0.8933,1.9053 -1.8798,1.9053 l -9.0251,-0.01 c -1.0206,0 -1.7947,-0.9101 -1.7947,-2.0585 l 0.3404,-5.8777 c 0,-1.0207 0.8415,-1.8628 1.9138,-1.8628 l 8.9822,0 c 1.0124,0 1.7266,0.8761 1.7266,1.8968 l -0.2655,6.0054 z m -1.7865,19.5555 c -0.095,1.0633 -1.0288,1.8799 -2.1093,1.8799 l -8.9658,0 c -1.0546,0 -1.7436,-0.9867 -1.5564,-1.8799 l 0.7319,-6.0733 c 0.1634,-1.0463 1.0968,-1.8629 2.1092,-1.8629 l 8.9822,0.1443 c 1.0042,0 1.7954,0.7997 1.5312,1.8799 l -0.723,5.9118 z m -2.9937,19.5386 c -0.2383,1.0208 -1.2507,1.7863 -2.263,1.7183 l -8.94,0 c -1.0458,0 -1.7096,-0.8081 -1.5224,-1.8969 l 1.1738,-5.9288 c 0.1702,-0.9866 1.1485,-1.8288 2.1943,-1.8288 l 8.991,0 c 0.9873,0 1.6592,0.8422 1.4632,1.9394 l -1.0969,5.9968 z m -4.5255,19.445 c -0.3472,1.0123 -1.412,1.9565 -2.4074,1.9565 l -9.0081,-0.061 c -0.9953,0 -1.5652,-0.8846 -1.2928,-1.9819 l 1.6333,-5.8778 c 0.2451,-1.0377 1.3691,-1.9309 2.3223,-1.9309 l 9.0591,0.077 c 0.9777,0 1.5734,0.8506 1.2419,1.9309 l -1.5483,5.8862 z m -5.512,19.52161 c -0.3676,1.11425 -1.3868,1.87985 -2.4244,1.87985 l -9.0251,-0.0545 c -1.0117,0 -1.5734,-0.85063 -1.1989,-1.8458 l 1.9478,-5.89478 c 0.3336,-1.16531 1.4713,-2.03296 2.4238,-2.03296 l 9.0509,0.12732 c 0.9866,0 1.5312,0.89318 1.2419,1.92239 l -2.016,5.89478 z m -6.1669,19.52155 c -0.4153,1.05474 -1.4802,1.89686 -2.5266,1.89686 l -8.9911,-0.0136 c -1.0627,0 -1.5393,-0.86759 -1.2248,-1.96488 l 1.9649,-5.9118 c 0.3336,-0.99517 1.4549,-1.83729 2.4673,-1.83729 l 9.0245,0 c 0.9783,0 1.5141,0.89312 1.1655,1.88836 l -1.8797,5.94576 z m -6.4815,19.50459 c -0.3745,1.06326 -1.472,2.02445 -2.5178,2.02445 l -8.957,-0.15318 c -1.0294,0 -1.5652,-0.85914 -1.1996,-1.89687 l 1.8968,-5.91179 c 0.4017,-1.0207 1.4801,-1.95637 2.4415,-1.94786 l 9.0502,0 c 0.9866,0 1.5142,0.93567 1.2337,2.00743 l -1.9478,5.87775 z m -6.4394,19.47049 c -0.2382,1.1058 -1.378,1.97345 -2.2964,1.94792 l -9.0932,0 c -0.9865,0 -1.5993,-0.84212 -1.2078,-2.00743 l 1.9309,-5.86924 c 0.3676,-1.05475 1.4542,-1.93942 2.4578,-1.93942 l 9.0931,0.14434 c 0.9873,0 1.472,0.80808 1.1738,1.91388 l -2.0582,5.80967 z m -6.235,19.62367 c -0.3336,1.09729 -1.4631,1.9309 -2.4585,1.9309 l -9.0162,-0.0613 c -0.9355,0 -1.5054,-0.86759 -1.1656,-1.89687 l 1.9308,-6.02236 c 0.3336,-1.06325 1.395,-1.87984 2.4755,-1.87984 l 8.9652,0.094 c 1.0383,0 1.5652,0.84206 1.1656,1.96488 l -1.8968,5.86925 z m -6.3113,19.56409 c -0.3064,1.04624 -1.4549,1.86283 -2.4503,1.86283 l -9.0333,0 c -1.0124,0 -1.4883,-0.85056 -1.1989,-1.9819 l 1.9308,-5.87776 c 0.3881,-0.99524 1.4461,-1.88835 2.4326,-1.88835 l 9.0843,0.034 c 1.0206,0 1.5312,0.85907 1.1997,1.93091 l -1.9649,5.92023 z m -56.2939,-193.8802 -9.1272,-0.01 c -0.9947,-0.1021 -1.8968,-0.8846 -1.8968,-1.9308 l -0.2247,-5.9543 c -0.075,-1.0888 0.7061,-1.9224 1.6762,-1.9224 l 9.0925,0 c 0.9784,0 1.8465,0.9017 1.9486,1.9734 l 0.177,5.9543 c 0.068,0.9952 -0.7149,1.8884 -1.6503,1.8884 m 1.2847,17.4546 c 0,1.0717 -0.8933,2.0329 -1.8716,2.0329 l -9.0592,-0.048 c -0.9953,0 -1.7694,-0.9612 -1.7694,-2.016 l 0,-5.8947 c 0,-1.0122 0.8762,-1.9309 1.8464,-1.9309 l 9.0925,0.048 c 0.9783,0 1.8464,0.9102 1.7783,1.9053 l 0,5.9033 z m -2.3734,19.479 c -0.1702,1.0548 -1.1656,2.0075 -2.178,2.0075 l -8.9992,-0.093 c -1.0464,0 -1.7014,-0.9187 -1.5394,-1.9565 l 0.8252,-5.9202 c 0.177,-1.0208 1.1738,-1.9649 2.1691,-1.9649 l 9.0415,0.054 c 0.9361,0 1.6592,0.8931 1.4801,2.0245 l -0.7993,5.8522 z m -3.7514,19.4705 c -0.2723,1.0038 -1.301,1.9139 -2.2283,1.9139 l -9.0422,-0.068 c -1.0294,0 -1.6585,-0.9612 -1.4712,-1.9649 l 1.361,-5.9288 c 0.2723,-1.0377 1.2758,-1.9139 2.2535,-1.9139 l 9.0932,0.1022 c 0.9443,0 1.6074,0.8421 1.3698,1.8118 l -1.3358,6.0478 z m -5.2819,19.4791 c -0.2927,0.9101 -1.3868,1.8033 -2.3563,1.8033 l -8.9829,-0.034 c -1.0798,0 -1.6074,-0.8592 -1.2759,-1.931 l 1.8458,-5.8692 c 0.3063,-1.2164 1.395,-2.0415 2.4332,-2.0415 l 8.9993,0.1192 c 1.0546,0 1.5904,0.8505 1.2336,1.9223 l -1.8968,6.0309 z m -6.0396,19.35142 c -0.3132,0.9612 -1.5053,1.88835 -2.4496,1.88835 l -9.0851,-0.0545 c -0.9606,0 -1.5563,-0.89312 -1.1056,-2.00744 l 1.8797,-5.94576 c 0.4494,-0.95269 1.5912,-1.82885 2.4756,-1.82885 l 9.0162,0.13616 c 1.0464,0 1.5571,0.74007 1.2166,1.84587 l -1.9478,5.96279 z m -6.3283,19.37694 c -0.3336,1.02077 -1.3951,1.89686 -2.4245,1.89686 l -9.0843,0 c -1.0294,-0.0851 -1.5823,-1.00368 -1.1826,-2.04998 l 1.9989,-5.89471 c 0.3336,-1.07176 1.4372,-1.88835 2.4415,-1.88835 l 8.9311,0.034 c 1.0635,0 1.5993,0.78261 1.2847,1.9309 l -1.9648,5.9713 z m -6.2351,19.38551 c -0.3608,1.03772 -1.4291,1.86282 -2.4244,1.86282 l -9.1014,-0.0408 c -0.9783,0 -1.523,-0.85063 -1.0723,-1.96488 l 1.8294,-5.85222 c 0.3676,-1.03779 1.4543,-1.91388 2.5177,-1.91388 l 9.0251,0.11029 c 0.9947,0 1.5564,0.84212 1.2078,1.93091 l -1.9819,5.86924 z m -6.218,19.37694 c -0.3609,1.15687 -1.455,1.92239 -2.4156,1.92239 l -9.1021,-0.0613 c -0.9783,0 -1.4971,-0.84205 -1.0968,-1.93935 l 1.8458,-5.86073 c 0.4357,-1.11432 1.5223,-1.97346 2.4578,-1.97346 l 9.068,0 c 1.0035,0.11915 1.5822,0.92716 1.1907,1.98197 l -1.9478,5.92875 z m -6.3542,19.41098 c -0.3336,1.0463 -1.4121,1.87984 -2.4585,1.87984 l -9.0163,-0.0408 c -0.9354,0 -1.5482,-0.81659 -1.2166,-1.92239 l 1.9649,-5.9118 c 0.3472,-1.04623 1.429,-1.87133 2.5095,-1.87133 l 8.9992,0 c 1.0213,0 1.5142,0.90162 1.1997,1.94792 l -1.9819,5.92024 z m -6.2092,19.44502 c -0.3336,0.93566 -1.4291,1.90537 -2.5096,1.90537 l -8.9399,-0.0408 c -1.0295,0 -1.4972,-0.96964 -1.2589,-1.99041 l 2.0241,-5.90321 c 0.3813,-1.08035 1.4801,-1.99048 2.4244,-1.9224 l 9.0251,0.0613 c 1.0295,0 1.5142,0.88467 1.1908,1.92239 l -1.956,5.9713 z m 27.4743,-250.61611 c -1.0206,0 -2.2032,-0.9186 -2.6369,-1.9564 l -2.662,-5.8777 c -0.463,-1.1824 0,-2.0075 0.9524,-2.0075 l 9.0333,0 c 1.0294,0.1273 2.195,0.8847 2.6287,2.0075 l 2.6961,5.9372 c 0.4493,1.0122 0,2.0075 -1.0036,2.0075 l -9.008,-0.1103 z m 14.6392,11.6619 1.8886,5.9458 c 0.3677,1.0378 -0.3132,1.8883 -1.1567,1.8883 l -9.1361,0 c -0.9613,0 -2.0159,-0.9357 -2.4237,-2.0074 l -1.7784,-5.9288 c -0.3676,-1.0887 0.2043,-1.9053 1.2167,-1.9053 l 9.0421,0 c 0.9014,0 2.084,0.8336 2.3475,2.0074 m 4.4996,19.5386 1.0206,5.7842 c 0.211,1.1143 -0.4153,2.0074 -1.4965,2.0074 l -9.0421,-0.076 c -1.0042,0 -1.9649,-0.8676 -2.1269,-1.9309 l -0.9777,-5.9118 c -0.2111,-1.1482 0.4493,-1.9224 1.4454,-1.9224 l 9.051,0.041 c 1.0464,0 1.9649,0.8932 2.1262,2.0074 m 82.382,-40.4636 8.9829,0.054 c 1.0457,0 2.0922,0.8761 2.3727,1.9394 l 1.5652,5.9033 c 0.3132,1.1313 -0.2247,2.0159 -1.3181,2.0159 l -8.9829,-0.076 c -0.9695,0 -2.084,-0.8081 -2.3475,-1.9905 l -1.5734,-5.8777 c -0.3064,-1.0378 0.2723,-1.9649 1.3011,-1.9649 m 16.6892,21.4865 1.1315,5.9202 c 0.1975,1.0548 -0.4697,1.9054 -1.4631,1.9054 l -9.0509,-0.014 c -0.9866,0 -2.016,-0.8506 -2.1522,-1.8969 l -1.1397,-6.0053 c -0.211,-1.0887 0.4766,-1.8798 1.472,-1.8798 l 9.0244,0 c 1.0124,0 2.0248,0.9186 2.178,1.9734 m 3.283,19.513 0.6467,5.9544 c 0.1907,0.9696 -0.5582,1.8202 -1.5393,1.8202 l -8.94,-0.041 c -1.1567,0 -2.033,-0.9102 -2.161,-1.8374 l -0.674,-6.0138 c -0.1293,-1.0548 0.5855,-1.8799 1.5911,-1.8799 l 8.9992,0 c 1.0206,0 1.9139,0.9187 2.0752,1.999 m 1.7695,19.3685 0,5.9713 c 0,1.0292 -0.8163,1.9394 -1.8287,1.9394 l -9.0844,-0.077 c -0.9191,0 -1.7524,-0.859 -1.7524,-1.9224 l -0.095,-5.9117 c 0,-1.0377 0.7734,-1.9989 1.8287,-1.9989 l 8.9992,0 c 1.0294,0 1.8117,0.9867 1.9309,1.9989 m -5.9369,-67.4792 -135.0354,0.085 c 37.9631,71.2559 6.8648,150.1417 -0.9607,174.59684 -23.3749,72.64239 -33.149,102.5925 -33.149,102.5925 l 133.1298,0 0,-0.22944 c 0,0 10.5052,-31.16648 33.8462,-103.84285 7.8847,-24.37855 30.3324,-99.34305 2.1691,-173.20185"
           style="fill:#fcca20;fill-opacity:1;fill-rule:nonzero;stroke:none"
           id="path4664"
           inkscape:connector-curvature="0" />
      </g>
    </g>
  </g>
</svg>
