<svg xmlns="http://www.w3.org/2000/svg" xmlns:xlink="http://www.w3.org/1999/xlink" id="Capa_1" x="0px" y="0px" viewBox="0 0 541.6 241.8" style="enable-background:new 0 0 541.6 241.8;" xml:space="preserve"><style type="text/css">	.st0{fill:#00388B;}</style><g>	<g>		<path class="st0" d="M42.3,199v5.1h-0.6c-0.9-1.7-2.2-3.1-3.7-4s-3.4-1.4-5.3-1.4c-2.5,0-4.7,0.8-6.4,2.2   c-3.2,2.7-4.8,6.9-4.8,12.5c0,1.9,0.2,3.7,0.7,5.5s1.1,3.3,2.1,4.8c0.9,1.5,2.2,2.6,3.8,3.5s3.5,1.3,5.6,1.3   c1.8,0,3.5-0.4,5.1-1.3s2.9-2,3.7-3.4h0.8v3.8c-1.3,0.8-3,1.5-5.1,1.9c-2,0.5-3.9,0.7-5.5,0.7c-4.9,0-8.7-1.5-11.5-4.4   c-2.7-3-4.1-7-4.1-12c0-5.4,1.5-9.5,4.5-12.5c2.9-2.9,6.6-4.4,11.3-4.4c1.8,0,3.4,0.2,5.1,0.5c1.6,0.3,2.7,0.6,3.4,1L42.3,199z"></path>		<path class="st0" d="M62.8,214.8l4.4,5.4l8.1,9.3H70l-6.7-8.3l-4.5-5.9h-1l-2.9,0v3.8c0,5.2,0.1,8.7,0.3,10.5H51   c0.2-3.2,0.3-7.5,0.3-12.8V210L51,197.7h5.3c0.8,0,1.5,0,2.1,0c0.6,0,1.3,0,2.1,0c3.6,0,6.2,0.8,7.8,2.4c1.9,1.9,2.8,4,2.6,6.2   c0,2.3-0.8,4.3-2.4,5.8C66.9,213.7,65,214.6,62.8,214.8z M55.1,207.5v5.5c1.4,0.3,2.6,0.5,3.7,0.5c2.6,0,4.6-0.7,6.2-2   c1.5-1.3,2.3-3,2.3-5.1c0-2.1-0.7-3.8-2.1-5.1c-1.4-1.3-3.4-1.9-6.1-2c-0.5,0-1.1,0-1.7,0.1c-0.6,0.1-1.1,0.1-1.5,0.2l-0.6,0   C55.2,200.6,55.1,203.2,55.1,207.5z"></path>		<path class="st0" d="M81.9,197.7h4.3l0,2.6l-0.2,5.9c0,1.4,0,3.1,0,4.9v6.4c0,3.1,0.1,7.1,0.3,11.9h-4.3c0.2-3.8,0.3-8.4,0.3-13.7   v-3.6C82.2,207.4,82.1,202.6,81.9,197.7z"></path>		<path class="st0" d="M95.5,228.2v-5h0.8c0.2,0.4,0.6,1,1.2,1.8c1.6,2.1,3.9,3.2,6.9,3.3c2,0,3.8-0.6,5.3-1.8   c1.5-1.2,2.2-2.7,2.2-4.6c0.1-1.4-0.3-2.6-1.1-3.8c-0.8-1.1-2.1-2-3.8-2.6l-4.1-1.4c-2.3-0.8-4.1-1.9-5.4-3.4   c-1.3-1.5-1.9-3.1-1.9-4.8c0-2.4,1-4.5,3-6.3c2-1.8,4.7-2.7,8-2.7c2.8,0,5.1,0.6,6.8,1.7v3.5h-0.6c-0.1-0.2-0.3-0.6-0.8-1.2   c-1.2-1.6-3-2.3-5.4-2.3c-1.9,0-3.5,0.6-5,1.8c-1.4,1.2-2.1,2.6-2.1,4.4c0.1,2.5,1.8,4.4,5.2,5.7l3.3,1.2c2.6,1,4.5,2.1,5.8,3.3   c1.3,1.3,1.9,2.9,1.9,4.9c0,3.2-1.2,5.7-3.7,7.5c-2.4,1.8-5.4,2.8-9,2.8C100.1,230.2,97.5,229.5,95.5,228.2z"></path>		<path class="st0" d="M144.1,197.8v2.3c-0.5,0-1.2,0-2.2,0c-0.9,0-2.3,0-4.3,0c-1,0-2,0-3,0c0,2.5,0,5.1,0,8v9.6   c0,7.2,0.1,11.2,0.2,11.9h-4.4c0.1-0.5,0.2-5.2,0.2-14.1V206c0-2.6-0.1-4.6-0.2-6c-6.4,0.1-9.7,0.1-9.8,0.2v-2.4H144.1z"></path>		<path class="st0" d="M158.5,197.7h1l13.6,31.8h-4.8c0-0.3-0.4-1.4-1.3-3.5c-0.7-1.8-1.5-3.7-2.3-5.8l-1.1-2.7   c-1.5-0.1-3.3-0.1-5.6-0.1h-5.6c-0.1,0.1-0.5,1.1-1.3,2.9l-2.2,5.8l-1.3,3.4h-3.2c0.4-0.8,2.6-5.7,6.4-14.5L158.5,197.7z    M158,204.1l-4.8,11.3l6.6,0.1c0.8,0,1.8,0,3.1,0C159.7,208,158.1,204.2,158,204.1z"></path>		<path class="st0" d="M184.1,227.5c8.7-0.2,13.5-0.4,14.2-0.6v2.6h-19c0.2-6.2,0.3-11.7,0.3-16.7v-4.2c0-1.9-0.1-5.5-0.2-10.8h4.9   c0,0.1-0.1,0.6-0.2,1.7l-0.2,4.1c-0.1,2.2-0.1,3.8-0.1,4.7v6.6C183.9,217.5,183.9,221.7,184.1,227.5z"></path>		<path class="st0" d="M210.6,227.3c1.5,0.1,3,0.1,4.5,0.1c2.7,0,6-0.2,9.9-0.5v2.6h-19.4c0.4-6.7,0.6-12.4,0.6-17v-5   c0-2.6-0.2-5.9-0.5-9.7h19v2.6c-2.4-0.4-5.7-0.6-9.9-0.6c-0.1,0-1.5,0-4.1,0.1c-0.1,1.9-0.2,3.9-0.2,6v4.5c0,0.1,0,0.2,0,0.5   s0,0.5,0,0.6c2,0.1,3.8,0.1,5.5,0.1c3.9,0,6.3-0.1,7.4-0.3v2.6c-0.1,0-0.2,0-0.4-0.1c-0.2,0-0.4,0-0.5,0c-0.4,0-1.2-0.1-2.6-0.1   c-1.8-0.1-3.2-0.1-4.2-0.1c-1.2,0-2.9,0.1-5.2,0.2c-0.1,0.8-0.1,1.5-0.1,2.3v6.3C210.5,223.9,210.5,225.5,210.6,227.3z"></path>		<path class="st0" d="M231.9,228.2v-5h0.8c0.2,0.4,0.6,1,1.2,1.8c1.6,2.1,3.9,3.2,6.9,3.3c2,0,3.8-0.6,5.3-1.8   c1.5-1.2,2.2-2.7,2.2-4.6c0.1-1.4-0.3-2.6-1.1-3.8c-0.8-1.1-2.1-2-3.8-2.6l-4.1-1.4c-2.3-0.8-4.1-1.9-5.4-3.4   c-1.3-1.5-1.9-3.1-1.9-4.8c0-2.4,1-4.5,3-6.3c2-1.8,4.7-2.7,8-2.7c2.8,0,5.1,0.6,6.8,1.7v3.5h-0.6c-0.1-0.2-0.3-0.6-0.8-1.2   c-1.2-1.6-3-2.3-5.4-2.3c-1.9,0-3.5,0.6-5,1.8c-1.4,1.2-2.1,2.6-2.1,4.4c0.1,2.5,1.8,4.4,5.2,5.7l3.3,1.2c2.6,1,4.5,2.1,5.8,3.3   c1.3,1.3,1.9,2.9,1.9,4.9c0,3.2-1.2,5.7-3.7,7.5c-2.4,1.8-5.4,2.8-9,2.8C236.6,230.2,234,229.5,231.9,228.2z"></path>		<path class="st0" d="M316.9,229.5h-4.8c0.3-1.1,0.4-3.3,0.4-6.5v-3.9c0-1.3,0-2.1,0-2.5c-7.6-12.3-11.5-18.6-11.7-18.8h5.3   l4.7,8.2c2.8,4.8,4.2,7.3,4.3,7.4l7.7-12.7c1-1.7,1.6-2.7,1.6-2.9h3.7l-2,3c-1,1.6-2.3,3.6-3.9,5.9c-1.3,1.9-2.5,3.8-3.8,5.9   c-1.2,1.9-1.8,3.1-1.9,3.5v2.2c0,1.4,0,3.5,0.1,6.4C316.7,227.6,316.8,229.2,316.9,229.5z"></path>		<path class="st0" d="M378.5,197.9h4h6.4c3,0,5.3,0.8,6.9,2.5c1.7,1.6,2.5,3.4,2.4,5.4c-0.1,2.8-1,5-2.9,6.8   c-2.1,2-5.7,2.9-10.7,2.8c-0.7,0-1.4,0-2.2-0.1v2c0,3.6,0.1,7.7,0.3,12.3h-4.4c0.2-3.6,0.3-7.6,0.3-12v-7.2L378.5,197.9z    M386.6,213.6c2.4,0,4.4-0.7,5.8-2.1c1.5-1.4,2.2-3.2,2.2-5.3c0-1.7-0.6-3.2-1.9-4.5c-1.5-1.5-3.7-2.2-6.6-2.2   c-1.2,0-2.2,0.1-3,0.3l-0.4,0.1l0,6l-0.1,7.4C384,213.5,385.3,213.6,386.6,213.6z"></path>		<path class="st0" d="M412.8,197.7h1l13.6,31.8h-4.8c0-0.3-0.4-1.4-1.3-3.5c-0.7-1.8-1.5-3.7-2.3-5.8l-1.1-2.7   c-1.5-0.1-3.3-0.1-5.6-0.1h-5.6c-0.1,0.1-0.5,1.1-1.3,2.9l-2.2,5.8l-1.3,3.4h-3.2c0.4-0.8,2.6-5.7,6.4-14.5L412.8,197.7z    M412.3,204.1l-4.8,11.3l6.6,0.1c0.8,0,1.8,0,3.1,0C414,208,412.4,204.2,412.3,204.1z"></path>		<path class="st0" d="M445.5,214.8l4.4,5.4l8.1,9.3h-5.2l-6.7-8.3l-4.5-5.9h-1l-2.9,0v3.8c0,5.2,0.1,8.7,0.3,10.5h-4.4   c0.2-3.2,0.3-7.5,0.3-12.8V210l-0.2-12.3h5.3c0.8,0,1.5,0,2.1,0c0.6,0,1.3,0,2.1,0c3.6,0,6.2,0.8,7.8,2.4c1.9,1.9,2.8,4,2.6,6.2   c0,2.3-0.8,4.3-2.4,5.8C449.7,213.7,447.7,214.6,445.5,214.8z M437.8,207.5v5.5c1.4,0.3,2.6,0.5,3.7,0.5c2.6,0,4.6-0.7,6.2-2   c1.5-1.3,2.3-3,2.3-5.1c0-2.1-0.7-3.8-2.1-5.1c-1.4-1.3-3.4-1.9-6.1-2c-0.5,0-1.1,0-1.7,0.1c-0.6,0.1-1.1,0.1-1.5,0.2l-0.6,0   C437.9,200.6,437.9,203.2,437.8,207.5z"></path>		<path class="st0" d="M484.4,197.8v2.3c-0.5,0-1.2,0-2.2,0c-0.9,0-2.3,0-4.3,0c-1,0-2,0-3,0c0,2.5,0,5.1,0,8v9.6   c0,7.2,0.1,11.2,0.2,11.9h-4.4c0.1-0.5,0.2-5.2,0.2-14.1V206c0-2.6-0.1-4.6-0.2-6c-6.4,0.1-9.7,0.1-9.8,0.2v-2.4H484.4z"></path>		<path class="st0" d="M495.8,227.3c1.5,0.1,3,0.1,4.5,0.1c2.7,0,6-0.2,9.9-0.5v2.6h-19.4c0.4-6.7,0.6-12.4,0.6-17v-5   c0-2.6-0.2-5.9-0.5-9.7h19v2.6c-2.4-0.4-5.7-0.6-9.9-0.6c-0.1,0-1.5,0-4.1,0.1c-0.1,1.9-0.2,3.9-0.2,6v4.5c0,0.1,0,0.2,0,0.5   s0,0.5,0,0.6c2,0.1,3.8,0.1,5.5,0.1c3.9,0,6.3-0.1,7.4-0.3v2.6c-0.1,0-0.2,0-0.4-0.1c-0.2,0-0.4,0-0.5,0c-0.4,0-1.2-0.1-2.6-0.1   c-1.8-0.1-3.2-0.1-4.2-0.1c-1.2,0-2.9,0.1-5.2,0.2c-0.1,0.8-0.1,1.5-0.1,2.3v6.3C495.7,223.9,495.7,225.5,495.8,227.3z"></path>		<path class="st0" d="M517.1,228.2v-5h0.8c0.2,0.4,0.6,1,1.2,1.8c1.6,2.1,3.9,3.2,6.9,3.3c2,0,3.8-0.6,5.3-1.8   c1.5-1.2,2.2-2.7,2.2-4.6c0.1-1.4-0.3-2.6-1.1-3.8c-0.8-1.1-2.1-2-3.8-2.6l-4.1-1.4c-2.3-0.8-4.1-1.9-5.4-3.4   c-1.3-1.5-1.9-3.1-1.9-4.8c0-2.4,1-4.5,3-6.3c2-1.8,4.7-2.7,8-2.7c2.8,0,5.1,0.6,6.8,1.7v3.5h-0.6c-0.1-0.2-0.3-0.6-0.8-1.2   c-1.2-1.6-3-2.3-5.4-2.3c-1.9,0-3.5,0.6-5,1.8c-1.4,1.2-2.1,2.6-2.1,4.4c0.1,2.5,1.8,4.4,5.2,5.7l3.3,1.2c2.6,1,4.5,2.1,5.8,3.3   c1.3,1.3,1.9,2.9,1.9,4.9c0,3.2-1.2,5.7-3.7,7.5c-2.4,1.8-5.4,2.8-9,2.8C521.8,230.2,519.2,229.5,517.1,228.2z"></path>	</g></g><g>	<g>		<path class="st0" d="M228.7,130.9l12.2,14.8l22.4,25.9h-14.5l-18.6-23L218,132.2h-2.6l-7.9-0.1v10.4c0.1,14.4,0.4,24.1,0.8,29.1   h-12.2c0.5-8.9,0.8-20.7,0.8-35.4v-18.4l-0.6-34.1h14.6c2.2,0,4.1,0,5.7-0.1c1.7-0.1,3.6-0.1,5.7-0.1c10,0,17.2,2.2,21.5,6.6   c5.3,5.3,7.7,11,7.3,17.1c0,6.4-2.2,11.8-6.6,16.2C240.3,127.7,235,130.3,228.7,130.9z M207.6,110.6V126c3.8,1,7.3,1.4,10.3,1.4   c7.1,0,12.8-1.8,17.1-5.5c4.3-3.7,6.4-8.4,6.4-14.2c0-5.9-1.9-10.6-5.8-14.1c-3.9-3.5-9.5-5.3-16.9-5.6c-1.4,0-3,0.1-4.7,0.2   c-1.7,0.2-3.1,0.3-4.2,0.5l-1.7,0.1C207.8,91.6,207.6,98.8,207.6,110.6z"></path>		<path class="st0" d="M311,81.7c12.9-0.4,23.7,3.3,32.2,11.1c8.6,7.7,13.1,18.9,13.5,33.6c0.4,15-3.5,26.5-11.6,34.5   c-8.2,8.1-18.8,12.4-31.7,12.7c-12.9,0.3-23.7-3.3-32.3-10.9c-8.6-7.7-13.1-19-13.4-33.9c-0.4-14.9,3.5-26.4,11.6-34.4   C287.5,86.3,298,82,311,81.7z M312.9,168.9c9.3-0.2,17-4.2,23-12c6.1-7.7,8.9-17.8,8.6-30.3c-0.4-12.4-3.8-22.4-10.1-29.8   c-6.3-7.4-14.1-11-23.3-10.8c-9.3,0.2-16.9,4.2-22.7,12c-5.9,7.9-8.7,18-8.4,30.3c0.4,12.7,3.6,22.7,9.7,29.9   C295.9,165.6,303.6,169.2,312.9,168.9z"></path>		<path class="st0" d="M424.7,83.8v6.5c-1.4,0-3.4,0-6-0.1c-2.5-0.1-6.4-0.1-11.8-0.1c-2.7-0.1-5.5-0.1-8.4-0.1   c-0.1,6.8-0.1,14.2-0.1,22.1v26.6c0,19.9,0.2,30.9,0.6,32.9h-12.1c0.4-1.4,0.6-14.4,0.6-39v-26.1c0-7.3-0.2-12.8-0.5-16.5   c-17.7,0.2-26.8,0.4-27.2,0.5v-6.6H424.7z"></path>		<path class="st0" d="M472.3,81.7c12.9-0.4,23.7,3.3,32.2,11.1c8.6,7.7,13.1,18.9,13.5,33.6c0.4,15-3.5,26.5-11.6,34.5   c-8.2,8.1-18.8,12.4-31.7,12.7c-12.9,0.3-23.7-3.3-32.3-10.9c-8.6-7.7-13.1-19-13.4-33.9c-0.4-14.9,3.5-26.4,11.6-34.4   C448.8,86.3,459.4,82,472.3,81.7z M474.2,168.9c9.3-0.2,17-4.2,23-12c6.1-7.7,8.9-17.8,8.6-30.3c-0.4-12.4-3.8-22.4-10.1-29.8   c-6.3-7.4-14.1-11-23.3-10.8c-9.3,0.2-16.9,4.2-22.7,12c-5.9,7.9-8.7,18-8.4,30.3c0.4,12.7,3.6,22.7,9.7,29.9   C457.2,165.6,465,169.2,474.2,168.9z"></path>	</g></g><g id="XMLID_173_">	<g>		<path class="st0" d="M178.2,0v171.6H0V0H178.2z M171.3,164.9V6.7H6.9v158.2H171.3z"></path>		<path class="st0" d="M163.9,142.8v15H14.3v-108c0,0,100.9,2.2,100.8,17.3c-0.1,15.1-47,39.1-42.2,56   C79.3,145.5,163.9,142.8,163.9,142.8z"></path>		<path class="st0" d="M163.9,13.8v121.8c0,0-74.8-1-79.9-14.2c-6.2-16,49.8-34.7,45.3-58.2c-4.4-23.6-115-22.7-115-22.7V13.8H163.9   z"></path>	</g>	<g>	</g></g></svg>